<?xml version="1.0" standalone="no"?>
<!DOCTYPE svg PUBLIC "-//W3C//DTD SVG 20010904//EN"
 "http://www.w3.org/TR/2001/REC-SVG-20010904/DTD/svg10.dtd">
<svg version="1.0" xmlns="http://www.w3.org/2000/svg"
 width="500.000000pt" height="429.000000pt" viewBox="0 0 500.000000 429.000000"
 preserveAspectRatio="xMidYMid meet">
<metadata>
Created by potrace 1.13, written by Peter Selinger 2001-2015
</metadata>
<g transform="translate(0.000000,429.000000) scale(0.100000,-0.100000)"
fill="#000000" stroke="none">
<path d="M2460 3713 c-14 -7 -40 -13 -57 -13 -18 0 -33 -4 -33 -10 0 -5 13
-10 29 -10 17 0 31 -6 35 -16 3 -9 6 -64 6 -123 l0 -108 -49 25 c-39 19 -58
23 -89 17 -95 -16 -152 -85 -160 -195 -3 -42 0 -88 8 -116 35 -123 175 -170
262 -88 l28 28 0 -33 c0 -28 3 -32 18 -26 9 4 34 9 55 12 38 6 52 23 18 23
-11 0 -23 6 -28 13 -4 6 -10 152 -13 322 l-5 311 -25 -13z m-95 -274 c71 -20
75 -27 75 -158 0 -136 -14 -175 -73 -204 -33 -17 -42 -17 -79 -5 -64 20 -83
60 -83 173 0 107 21 160 76 187 40 21 34 21 84 7z"/>
<path d="M2690 3715 c-14 -8 -40 -14 -57 -15 -40 0 -44 -17 -5 -22 l27 -3 3
-322 c1 -178 6 -323 11 -323 4 0 16 9 26 20 16 18 20 18 46 4 42 -21 111 -28
152 -15 88 29 126 94 127 210 0 95 -15 145 -57 181 -60 53 -156 49 -214 -10
l-29 -28 -2 168 -3 168 -25 -13z m222 -294 c13 -11 30 -37 36 -59 15 -48 16
-174 2 -224 -27 -94 -151 -120 -212 -44 -14 17 -18 42 -18 129 0 115 8 144 52
183 42 39 101 45 140 15z"/>
<path d="M3960 3713 c-14 -7 -40 -13 -57 -13 -18 0 -33 -4 -33 -10 0 -5 13
-10 29 -10 17 0 31 -6 35 -16 3 -9 6 -64 6 -123 l0 -108 -49 25 c-39 19 -58
23 -89 17 -95 -16 -152 -85 -160 -195 -3 -42 0 -88 8 -116 35 -123 175 -170
262 -88 l28 28 0 -33 c0 -28 3 -32 18 -26 9 4 34 9 55 12 38 6 52 23 18 23
-11 0 -23 6 -28 13 -4 6 -10 152 -13 322 l-5 311 -25 -13z m-95 -274 c71 -20
75 -27 75 -158 0 -136 -14 -175 -73 -204 -33 -17 -42 -17 -79 -5 -64 20 -83
60 -83 173 0 107 21 160 76 187 40 21 34 21 84 7z"/>
<path d="M964 3461 c-30 -18 -35 -18 -75 -4 -55 19 -129 11 -169 -17 -34 -24
-65 -98 -56 -134 3 -13 17 -38 31 -54 l24 -29 -24 -23 c-32 -30 -33 -75 -4
-91 21 -11 20 -12 -15 -41 -61 -50 -47 -116 31 -157 36 -18 134 -24 195 -12
100 21 149 109 98 174 -23 29 -31 31 -170 52 -117 18 -140 33 -105 69 12 12
22 13 41 6 63 -24 147 -1 181 49 26 38 31 103 11 146 -10 22 -9 28 3 36 10 6
18 3 28 -11 19 -28 49 -26 57 5 7 28 -10 55 -35 55 -9 0 -30 -9 -47 -19z m-94
-26 c58 -30 68 -157 15 -202 -28 -25 -82 -31 -116 -13 -57 31 -67 162 -15 207
31 27 74 30 116 8z m-25 -360 c111 -14 141 -40 119 -104 -28 -80 -231 -81
-270 -2 -25 50 24 125 76 117 14 -3 48 -7 75 -11z"/>
<path d="M1265 3468 c-41 -14 -91 -64 -115 -113 -46 -96 -11 -237 73 -293 34
-23 52 -27 107 -27 57 0 73 4 108 29 58 40 92 111 92 190 -1 158 -129 261
-265 214z m145 -46 c47 -47 64 -103 58 -198 -4 -51 -11 -82 -27 -108 -56 -89
-170 -87 -226 6 -16 27 -20 51 -20 128 0 108 16 148 75 187 51 35 95 31 140
-15z"/>
<path d="M1765 3468 c-41 -14 -91 -64 -115 -113 -46 -96 -11 -237 73 -293 34
-23 52 -27 107 -27 57 0 73 4 108 29 58 40 92 111 92 190 -1 158 -129 261
-265 214z m145 -46 c47 -47 64 -103 58 -198 -4 -51 -11 -82 -27 -108 -56 -89
-170 -87 -226 6 -16 27 -20 51 -20 128 0 108 16 148 75 187 51 35 95 31 140
-15z"/>
<path d="M3265 3468 c-41 -14 -91 -64 -115 -113 -46 -96 -11 -237 73 -293 34
-23 52 -27 107 -27 57 0 73 4 108 29 58 40 92 111 92 190 -1 158 -129 261
-265 214z m145 -46 c47 -47 64 -103 58 -198 -4 -51 -11 -82 -27 -108 -56 -89
-170 -87 -226 6 -16 27 -20 51 -20 128 0 108 16 148 75 187 51 35 95 31 140
-15z"/>
</g>
</svg>
